NotoSansHebrew-Bold.ufo
<glyph name="etnahtaleft-hb" format="2">
  <unicode hex="0591"/>
  <note>
uni0591
</note>
  <anchor x="146" y="0" name="_bottomleft"/>
  <outline>
    <contour>
      <point x="50" y="-238" type="line"/>
      <point x="101" y="-238" type="line"/>
      <point x="101" y="-214" type="line" smooth="yes"/>
      <point x="101" y="-178"/>
      <point x="113" y="-163"/>
      <point x="147" y="-163" type="curve" smooth="yes"/>
      <point x="179" y="-163"/>
      <point x="191" y="-178"/>
      <point x="191" y="-214" type="curve" smooth="yes"/>
      <point x="191" y="-238" type="line"/>
      <point x="243" y="-238" type="line"/>
      <point x="243" y="-213" type="line" smooth="yes"/>
      <point x="243" y="-154"/>
      <point x="221" y="-125"/>
      <point x="172" y="-117" type="curve"/>
      <point x="172" y="-70" type="line"/>
      <point x="120" y="-70" type="line"/>
      <point x="120" y="-117" type="line"/>
      <point x="73" y="-125"/>
      <point x="50" y="-154"/>
      <point x="50" y="-213" type="curve" smooth="yes"/>
    </contour>
  </outline>
</glyph>
<glyph name="segolta-hb" format="2">
  <unicode hex="0592"/>
  <note>
uni0592
</note>
  <anchor x="230" y="553" name="_topleft"/>
  <outline>
    <contour>
      <point x="165" y="778" type="curve" smooth="yes"/>
      <point x="188" y="778"/>
      <point x="207" y="797"/>
      <point x="207" y="820" type="curve" smooth="yes"/>
      <point x="207" y="843"/>
      <point x="188" y="862"/>
      <point x="165" y="862" type="curve" smooth="yes"/>
      <point x="142" y="862"/>
      <point x="123" y="843"/>
      <point x="123" y="820" type="curve" smooth="yes"/>
      <point x="123" y="797"/>
      <point x="142" y="778"/>
    </contour>
    <contour>
      <point x="100" y="672" type="curve" smooth="yes"/>
      <point x="123" y="672"/>
      <point x="142" y="691"/>
      <point x="142" y="714" type="curve" smooth="yes"/>
      <point x="142" y="737"/>
      <point x="123" y="756"/>
      <point x="100" y="756" type="curve" smooth="yes"/>
      <point x="77" y="756"/>
      <point x="58" y="737"/>
      <point x="58" y="714" type="curve" smooth="yes"/>
      <point x="58" y="691"/>
      <point x="77" y="672"/>
    </contour>
    <contour>
      <point x="231" y="672" type="curve" smooth="yes"/>
      <point x="254" y="672"/>
      <point x="273" y="691"/>
      <point x="273" y="714" type="curve" smooth="yes"/>
      <point x="273" y="737"/>
      <point x="254" y="756"/>
      <point x="231" y="756" type="curve" smooth="yes"/>
      <point x="208" y="756"/>
      <point x="189" y="737"/>
      <point x="189" y="714" type="curve" smooth="yes"/>
      <point x="189" y="691"/>
      <point x="208" y="672"/>
    </contour>
  </outline>
</glyph>
<glyph name="shalshelet-hb" format="2">
  <unicode hex="0593"/>
  <note>
uni0593
</note>
  <anchor x="129" y="553" name="_top"/>
  <outline>
    <contour>
      <point x="50" y="659" type="line"/>
      <point x="114" y="659" type="line"/>
      <point x="208" y="705" type="line"/>
      <point x="125" y="751" type="line"/>
      <point x="208" y="798" type="line"/>
      <point x="125" y="844" type="line"/>
      <point x="208" y="890" type="line"/>
      <point x="133" y="890" type="line"/>
      <point x="50" y="844" type="line"/>
      <point x="133" y="798" type="line"/>
      <point x="50" y="751" type="line"/>
      <point x="133" y="705" type="line"/>
    </contour>
  </outline>
</glyph>
<glyph name="zaqefqatan-hb" format="2">
  <unicode hex="0594"/>
  <note>
uni0594
</note>
  <anchor x="101" y="553" name="_top"/>
  <outline>
    <contour>
      <point x="101" y="778" type="curve" smooth="yes"/>
      <point x="124" y="778"/>
      <point x="143" y="797"/>
      <point x="143" y="820" type="curve" smooth="yes"/>
      <point x="143" y="843"/>
      <point x="124" y="862"/>
      <point x="101" y="862" type="curve" smooth="yes"/>
      <point x="78" y="862"/>
      <point x="59" y="843"/>
      <point x="59" y="820" type="curve" smooth="yes"/>
      <point x="59" y="797"/>
      <point x="78" y="778"/>
    </contour>
    <contour>
      <point x="101" y="673" type="curve" smooth="yes"/>
      <point x="124" y="673"/>
      <point x="143" y="692"/>
      <point x="143" y="715" type="curve" smooth="yes"/>
      <point x="143" y="738"/>
      <point x="124" y="757"/>
      <point x="101" y="757" type="curve" smooth="yes"/>
      <point x="78" y="757"/>
      <point x="59" y="738"/>
      <point x="59" y="715" type="curve" smooth="yes"/>
      <point x="59" y="692"/>
      <point x="78" y="673"/>
    </contour>
  </outline>
</glyph>
<glyph name="tipehaleft-hb" format="2">
  <unicode hex="0596"/>
  <note>
uni0596
</note>
  <anchor x="78" y="0" name="_bottomleft"/>
  <outline>
    <contour>
      <point x="214" y="-224" type="curve"/>
      <point x="214" y="-170" type="line"/>
      <point x="146" y="-170"/>
      <point x="105" y="-133"/>
      <point x="105" y="-70" type="curve"/>
      <point x="50" y="-70" type="line"/>
      <point x="50" y="-167"/>
      <point x="110" y="-224"/>
    </contour>
  </outline>
</glyph>
<glyph name="reviamugrash-hb" format="2">
  <unicode hex="0597"/>
  <note>
uni0597
</note>
  <anchor x="197" y="553" name="_topleft"/>
  <outline>
    <contour>
      <point x="127" y="650" type="line"/>
      <point x="204" y="735" type="line"/>
      <point x="127" y="820" type="line"/>
      <point x="50" y="735" type="line"/>
    </contour>
  </outline>
</glyph>
<glyph name="zarqa-hb" format="2">
  <unicode hex="0598"/>
  <note>
uni0598
</note>
  <anchor x="202" y="553" name="_top"/>
  <outline>
    <contour>
      <point x="105" y="650" type="curve"/>
      <point x="120" y="686" type="line"/>
      <point x="100" y="695"/>
      <point x="90" y="708"/>
      <point x="90" y="730" type="curve" smooth="yes"/>
      <point x="90" y="754"/>
      <point x="104" y="769"/>
      <point x="123" y="769" type="curve" smooth="yes"/>
      <point x="146" y="769"/>
      <point x="157" y="758"/>
      <point x="188" y="715" type="curve" smooth="yes"/>
      <point x="223" y="666"/>
      <point x="247" y="651"/>
      <point x="281" y="651" type="curve" smooth="yes"/>
      <point x="323" y="651"/>
      <point x="354" y="681"/>
      <point x="354" y="726" type="curve" smooth="yes"/>
      <point x="354" y="765"/>
      <point x="335" y="792"/>
      <point x="299" y="806" type="curve"/>
      <point x="284" y="769" type="line"/>
      <point x="304" y="761"/>
      <point x="314" y="748"/>
      <point x="314" y="726" type="curve" smooth="yes"/>
      <point x="314" y="701"/>
      <point x="300" y="687"/>
      <point x="281" y="687" type="curve" smooth="yes"/>
      <point x="259" y="687"/>
      <point x="244" y="702"/>
      <point x="216" y="740" type="curve" smooth="yes"/>
      <point x="180" y="790"/>
      <point x="157" y="805"/>
      <point x="125" y="805" type="curve" smooth="yes"/>
      <point x="81" y="805"/>
      <point x="50" y="774"/>
      <point x="50" y="730" type="curve" smooth="yes"/>
      <point x="50" y="690"/>
      <point x="69" y="662"/>
    </contour>
  </outline>
</glyph>
<glyph name="pashta-hb" format="2">
  <unicode hex="0599"/>
  <note>
uni0599
</note>
  <anchor x="214" y="553" name="_topleft"/>
  <outline>
    <contour>
      <point x="159" y="650" type="curve"/>
      <point x="214" y="650" type="line"/>
      <point x="214" y="749"/>
      <point x="153" y="805"/>
      <point x="50" y="805" type="curve"/>
      <point x="50" y="750" type="line"/>
      <point x="120" y="750"/>
      <point x="159" y="713"/>
    </contour>
  </outline>
</glyph>
<glyph name="yetiv-hb" format="2">
  <unicode hex="059A"/>
  <note>
uni059A
</note>
  <anchor x="132" y="0" name="_bottomleft"/>
  <outline>
    <contour>
      <point x="141" y="-252" type="line"/>
      <point x="213" y="-252" type="line"/>
      <point x="122" y="-160" type="line"/>
      <point x="213" y="-69" type="line"/>
      <point x="141" y="-69" type="line"/>
      <point x="50" y="-160" type="line"/>
    </contour>
  </outline>
</glyph>
<glyph name="tevirleft-hb" format="2">
  <unicode hex="059B"/>
  <note>
uni059B
</note>
  <anchor x="207" y="0" name="_bottomleft"/>
  <outline>
    <contour>
      <point x="68" y="-224" type="line"/>
      <point x="175" y="-224"/>
      <point x="234" y="-166"/>
      <point x="234" y="-70" type="curve"/>
      <point x="179" y="-70" type="line"/>
      <point x="179" y="-133"/>
      <point x="137" y="-170"/>
      <point x="68" y="-170" type="curve"/>
    </contour>
    <contour>
      <point x="89" y="-117" type="curve" smooth="yes"/>
      <point x="112" y="-117"/>
      <point x="130" y="-100"/>
      <point x="130" y="-77" type="curve" smooth="yes"/>
      <point x="130" y="-54"/>
      <point x="112" y="-36"/>
      <point x="89" y="-36" type="curve" smooth="yes"/>
      <point x="67" y="-36"/>
      <point x="50" y="-55"/>
      <point x="50" y="-77" type="curve" smooth="yes"/>
      <point x="50" y="-100"/>
      <point x="67" y="-117"/>
    </contour>
  </outline>
</glyph>
<glyph name="gereshaccent-hb" format="2">
  <unicode hex="059C"/>
  <note>
uni059C
</note>
  <anchor x="78" y="553" name="_topleft"/>
  <outline>
    <contour>
      <point x="50" y="636" type="curve"/>
      <point x="105" y="636" type="line"/>
      <point x="105" y="700"/>
      <point x="146" y="736"/>
      <point x="214" y="736" type="curve"/>
      <point x="214" y="791" type="line"/>
      <point x="111" y="791"/>
      <point x="50" y="734"/>
    </contour>
  </outline>
</glyph>
<glyph name="gereshmuqdam-hb" format="2">
  <unicode hex="059D"/>
  <note>
uni059D
</note>
  <anchor x="160" y="553" name="_top"/>
  <outline>
    <contour>
      <point x="50" y="636" type="curve"/>
      <point x="105" y="636" type="line"/>
      <point x="105" y="700"/>
      <point x="146" y="736"/>
      <point x="214" y="736" type="curve"/>
      <point x="214" y="791" type="line"/>
      <point x="111" y="791"/>
      <point x="50" y="734"/>
    </contour>
  </outline>
</glyph>
<glyph name="gershayimaccent-hb" format="2">
  <unicode hex="059E"/>
  <note>
uni059E
</note>
  <anchor x="166" y="553" name="_top"/>
  <outline>
    <contour>
      <point x="216" y="636" type="curve"/>
      <point x="272" y="636" type="line"/>
      <point x="272" y="700"/>
      <point x="314" y="736"/>
      <point x="382" y="736" type="curve"/>
      <point x="382" y="791" type="line"/>
      <point x="279" y="791"/>
      <point x="216" y="734"/>
    </contour>
    <contour>
      <point x="50" y="636" type="curve"/>
      <point x="106" y="636" type="line"/>
      <point x="106" y="700"/>
      <point x="148" y="736"/>
      <point x="216" y="736" type="curve"/>
      <point x="216" y="791" type="line"/>
      <point x="110" y="791"/>
      <point x="50" y="733"/>
    </contour>
  </outline>
</glyph>
<glyph name="qarneypara-hb" format="2">
  <unicode hex="059F"/>
  <note>
uni059F
</note>
  <anchor x="300" y="553" name="_top"/>
  <outline>
    <contour>
      <point x="354" y="629" type="line"/>
      <point x="396" y="670" type="line"/>
      <point x="411" y="663"/>
      <point x="428" y="659"/>
      <point x="446" y="659" type="curve" smooth="yes"/>
      <point x="505" y="659"/>
      <point x="550" y="705"/>
      <point x="550" y="762" type="curve" smooth="yes"/>
      <point x="550" y="820"/>
      <point x="503" y="864"/>
      <point x="446" y="864" type="curve" smooth="yes"/>
      <point x="389" y="864"/>
      <point x="343" y="819"/>
      <point x="343" y="762" type="curve" smooth="yes"/>
      <point x="343" y="743"/>
      <point x="348" y="725"/>
      <point x="357" y="711" type="curve"/>
      <point x="314" y="668" type="line"/>
    </contour>
    <contour>
      <point x="246" y="629" type="line"/>
      <point x="286" y="668" type="line"/>
      <point x="243" y="711" type="line"/>
      <point x="252" y="725"/>
      <point x="257" y="743"/>
      <point x="257" y="762" type="curve" smooth="yes"/>
      <point x="257" y="819"/>
      <point x="211" y="864"/>
      <point x="154" y="864" type="curve" smooth="yes"/>
      <point x="97" y="864"/>
      <point x="50" y="819"/>
      <point x="50" y="762" type="curve" smooth="yes"/>
      <point x="50" y="705"/>
      <point x="95" y="659"/>
      <point x="154" y="659" type="curve" smooth="yes"/>
      <point x="172" y="659"/>
      <point x="189" y="663"/>
      <point x="204" y="670" type="curve"/>
    </contour>
    <contour>
      <point x="155" y="710" type="curve" smooth="yes"/>
      <point x="126" y="710"/>
      <point x="102" y="734"/>
      <point x="102" y="762" type="curve" smooth="yes"/>
      <point x="102" y="789"/>
      <point x="127" y="813"/>
      <point x="155" y="813" type="curve" smooth="yes"/>
      <point x="181" y="813"/>
      <point x="205" y="790"/>
      <point x="205" y="762" type="curve" smooth="yes"/>
      <point x="205" y="733"/>
      <point x="182" y="710"/>
    </contour>
    <contour>
      <point x="445" y="710" type="curve" smooth="yes"/>
      <point x="418" y="710"/>
      <point x="395" y="733"/>
      <point x="395" y="762" type="curve" smooth="yes"/>
      <point x="395" y="790"/>
      <point x="419" y="813"/>
      <point x="445" y="813" type="curve" smooth="yes"/>
      <point x="473" y="813"/>
      <point x="498" y="789"/>
      <point x="498" y="762" type="curve" smooth="yes"/>
      <point x="498" y="734"/>
      <point x="474" y="710"/>
    </contour>
  </outline>
</glyph>
<glyph name="telishagedola-hb" format="2">
  <unicode hex="05A0"/>
  <note>
uni05A0
</note>
  <anchor x="168" y="553" name="_top"/>
  <outline>
    <contour>
      <point x="90" y="629" type="line"/>
      <point x="132" y="670" type="line"/>
      <point x="147" y="663"/>
      <point x="164" y="659"/>
      <point x="182" y="659" type="curve" smooth="yes"/>
      <point x="241" y="659"/>
      <point x="286" y="705"/>
      <point x="286" y="762" type="curve" smooth="yes"/>
      <point x="286" y="820"/>
      <point x="239" y="864"/>
      <point x="182" y="864" type="curve" smooth="yes"/>
      <point x="125" y="864"/>
      <point x="79" y="819"/>
      <point x="79" y="762" type="curve" smooth="yes"/>
      <point x="79" y="743"/>
      <point x="84" y="725"/>
      <point x="93" y="711" type="curve"/>
      <point x="50" y="668" type="line"/>
    </contour>
    <contour>
      <point x="181" y="710" type="curve" smooth="yes"/>
      <point x="154" y="710"/>
      <point x="131" y="733"/>
      <point x="131" y="762" type="curve" smooth="yes"/>
      <point x="131" y="790"/>
      <point x="155" y="813"/>
      <point x="181" y="813" type="curve" smooth="yes"/>
      <point x="209" y="813"/>
      <point x="234" y="789"/>
      <point x="234" y="762" type="curve" smooth="yes"/>
      <point x="234" y="734"/>
      <point x="210" y="710"/>
    </contour>
  </outline>
</glyph>
<glyph name="pazer-hb" format="2">
  <unicode hex="05A1"/>
  <note>
uni05A1
</note>
  <anchor x="134" y="553" name="_top"/>
  <outline>
    <contour>
      <point x="50" y="635" type="line"/>
      <point x="101" y="635" type="line"/>
      <point x="101" y="686" type="line"/>
      <point x="109" y="682"/>
      <point x="119" y="681"/>
      <point x="130" y="681" type="curve" smooth="yes"/>
      <point x="189" y="681"/>
      <point x="218" y="718"/>
      <point x="218" y="778" type="curve" smooth="yes"/>
      <point x="218" y="803" type="line"/>
      <point x="166" y="803" type="line"/>
      <point x="166" y="778" type="line" smooth="yes"/>
      <point x="166" y="740"/>
      <point x="155" y="727"/>
      <point x="123" y="727" type="curve" smooth="yes"/>
      <point x="111" y="727"/>
      <point x="105" y="729"/>
      <point x="101" y="734" type="curve"/>
      <point x="101" y="803" type="line"/>
      <point x="50" y="803" type="line"/>
    </contour>
  </outline>
</glyph>
<glyph name="munahleft-hb" format="2">
  <unicode hex="05A3"/>
  <note>
uni05A3
</note>
  <anchor x="214" y="0" name="_bottomleft"/>
  <outline>
    <contour>
      <point x="50" y="-228" type="line"/>
      <point x="214" y="-228" type="line"/>
      <point x="214" y="-70" type="line"/>
      <point x="159" y="-70" type="line"/>
      <point x="159" y="-174" type="line"/>
      <point x="50" y="-174" type="line"/>
    </contour>
  </outline>
</glyph>
<glyph name="mahapakhleft-hb" format="2">
  <unicode hex="05A4"/>
  <note>
uni05A4
</note>
  <anchor x="132" y="0" name="_bottomleft"/>
  <outline>
    <contour>
      <point x="141" y="-253" type="line"/>
      <point x="214" y="-253" type="line"/>
      <point x="123" y="-161" type="line"/>
      <point x="214" y="-70" type="line"/>
      <point x="141" y="-70" type="line"/>
      <point x="50" y="-161" type="line"/>
    </contour>
  </outline>
</glyph>
<glyph name="merkhaleft-hb" format="2">
  <unicode hex="05A5"/>
  <note>
uni05A5
</note>
  <anchor x="214" y="0" name="_bottomleft"/>
  <outline>
    <contour>
      <point x="50" y="-224" type="line"/>
      <point x="155" y="-224"/>
      <point x="214" y="-167"/>
      <point x="214" y="-70" type="curve"/>
      <point x="159" y="-70" type="line"/>
      <point x="159" y="-132"/>
      <point x="118" y="-170"/>
      <point x="50" y="-170" type="curve"/>
    </contour>
  </outline>
</glyph>
<glyph name="merkhakefulaleft-hb" format="2">
  <unicode hex="05A6"/>
  <note>
uni05A6
</note>
  <anchor x="266" y="0" name="_bottomleft"/>
  <outline>
    <contour>
      <point x="216" y="-224" type="line"/>
      <point x="323" y="-224"/>
      <point x="382" y="-166"/>
      <point x="382" y="-70" type="curve"/>
      <point x="326" y="-70" type="line"/>
      <point x="326" y="-132"/>
      <point x="285" y="-170"/>
      <point x="216" y="-170" type="curve"/>
    </contour>
    <contour>
      <point x="50" y="-224" type="line"/>
      <point x="156" y="-224"/>
      <point x="216" y="-167"/>
      <point x="216" y="-70" type="curve"/>
      <point x="160" y="-70" type="line"/>
      <point x="160" y="-132"/>
      <point x="119" y="-170"/>
      <point x="50" y="-170" type="curve"/>
    </contour>
  </outline>
</glyph>
<glyph name="dargaleft-hb" format="2">
  <unicode hex="05A7"/>
  <note>
uni05A7
</note>
  <anchor x="195" y="0" name="_bottomleft"/>
  <outline>
    <contour>
      <point x="65" y="-252" type="line"/>
      <point x="209" y="-226" type="line"/>
      <point x="122" y="-113" type="line"/>
      <point x="195" y="-99" type="line"/>
      <point x="195" y="-61" type="line"/>
      <point x="50" y="-87" type="line"/>
      <point x="137" y="-201" type="line"/>
      <point x="65" y="-212" type="line"/>
    </contour>
  </outline>
</glyph>
<glyph name="qadma-hb" format="2">
  <unicode hex="05A8"/>
  <note>
uni05A8
</note>
  <anchor x="187" y="553" name="_topleft"/>
  <outline>
    <contour>
      <point x="159" y="636" type="curve"/>
      <point x="214" y="636" type="line"/>
      <point x="214" y="735"/>
      <point x="153" y="791"/>
      <point x="50" y="791" type="curve"/>
      <point x="50" y="736" type="line"/>
      <point x="120" y="736"/>
      <point x="159" y="699"/>
    </contour>
  </outline>
</glyph>
<glyph name="telishaqetana-hb" format="2">
  <unicode hex="05A9"/>
  <note>
uni05A9
</note>
  <anchor x="155" y="553" name="_topleft"/>
  <outline>
    <contour>
      <point x="246" y="629" type="line"/>
      <point x="286" y="668" type="line"/>
      <point x="243" y="711" type="line"/>
      <point x="252" y="725"/>
      <point x="257" y="743"/>
      <point x="257" y="762" type="curve" smooth="yes"/>
      <point x="257" y="819"/>
      <point x="211" y="864"/>
      <point x="154" y="864" type="curve" smooth="yes"/>
      <point x="97" y="864"/>
      <point x="50" y="819"/>
      <point x="50" y="762" type="curve" smooth="yes"/>
      <point x="50" y="705"/>
      <point x="95" y="659"/>
      <point x="154" y="659" type="curve" smooth="yes"/>
      <point x="172" y="659"/>
      <point x="189" y="663"/>
      <point x="204" y="670" type="curve"/>
    </contour>
    <contour>
      <point x="155" y="710" type="curve" smooth="yes"/>
      <point x="126" y="710"/>
      <point x="102" y="734"/>
      <point x="102" y="762" type="curve" smooth="yes"/>
      <point x="102" y="789"/>
      <point x="127" y="813"/>
      <point x="155" y="813" type="curve" smooth="yes"/>
      <point x="181" y="813"/>
      <point x="205" y="790"/>
      <point x="205" y="762" type="curve" smooth="yes"/>
      <point x="205" y="733"/>
      <point x="182" y="710"/>
    </contour>
  </outline>
</glyph>
<glyph name="yerahbenyomoleft-hb" format="2">
  <unicode hex="05AA"/>
  <note>
uni05AA
</note>
  <anchor x="147" y="0" name="_bottomleft"/>
  <outline>
    <contour>
      <point x="120" y="-238" type="line"/>
      <point x="172" y="-238" type="line"/>
      <point x="172" y="-192" type="line"/>
      <point x="219" y="-184"/>
      <point x="243" y="-156"/>
      <point x="243" y="-95" type="curve" smooth="yes"/>
      <point x="243" y="-70" type="line"/>
      <point x="191" y="-70" type="line"/>
      <point x="191" y="-95" type="line" smooth="yes"/>
      <point x="191" y="-130"/>
      <point x="179" y="-146"/>
      <point x="147" y="-146" type="curve" smooth="yes"/>
      <point x="113" y="-146"/>
      <point x="101" y="-130"/>
      <point x="101" y="-95" type="curve" smooth="yes"/>
      <point x="101" y="-70" type="line"/>
      <point x="50" y="-70" type="line"/>
      <point x="50" y="-95" type="line" smooth="yes"/>
      <point x="50" y="-156"/>
      <point x="76" y="-185"/>
      <point x="120" y="-192" type="curve"/>
    </contour>
  </outline>
</glyph>
<glyph name="ole-hb" format="2">
  <unicode hex="05AB"/>
  <note>
uni05AB
</note>
  <anchor x="132" y="553" name="_top"/>
  <outline>
    <contour>
      <point x="141" y="633" type="line"/>
      <point x="214" y="633" type="line"/>
      <point x="123" y="725" type="line"/>
      <point x="214" y="816" type="line"/>
      <point x="141" y="816" type="line"/>
      <point x="50" y="725" type="line"/>
    </contour>
  </outline>
</glyph>
<glyph name="iluy-hb" format="2">
  <unicode hex="05AC"/>
  <note>
uni05AC
</note>
  <anchor x="132" y="553" name="_top"/>
  <outline>
    <contour>
      <point x="50" y="636" type="line"/>
      <point x="214" y="636" type="line"/>
      <point x="214" y="794" type="line"/>
      <point x="159" y="794" type="line"/>
      <point x="159" y="690" type="line"/>
      <point x="50" y="690" type="line"/>
    </contour>
  </outline>
</glyph>
<glyph name="zinor-hb" format="2">
  <unicode hex="05AE"/>
  <note>
uni05AE
</note>
  <anchor x="202" y="553" name="_top"/>
  <outline>
    <contour>
      <point x="105" y="636" type="curve"/>
      <point x="120" y="672" type="line"/>
      <point x="100" y="681"/>
      <point x="90" y="694"/>
      <point x="90" y="716" type="curve" smooth="yes"/>
      <point x="90" y="740"/>
      <point x="104" y="755"/>
      <point x="123" y="755" type="curve" smooth="yes"/>
      <point x="146" y="755"/>
      <point x="157" y="744"/>
      <point x="188" y="701" type="curve" smooth="yes"/>
      <point x="223" y="652"/>
      <point x="247" y="637"/>
      <point x="281" y="637" type="curve" smooth="yes"/>
      <point x="323" y="637"/>
      <point x="354" y="667"/>
      <point x="354" y="712" type="curve" smooth="yes"/>
      <point x="354" y="751"/>
      <point x="335" y="778"/>
      <point x="299" y="792" type="curve"/>
      <point x="284" y="755" type="line"/>
      <point x="304" y="747"/>
      <point x="314" y="734"/>
      <point x="314" y="712" type="curve" smooth="yes"/>
      <point x="314" y="686"/>
      <point x="300" y="673"/>
      <point x="281" y="673" type="curve" smooth="yes"/>
      <point x="259" y="673"/>
      <point x="244" y="688"/>
      <point x="216" y="726" type="curve" smooth="yes"/>
      <point x="180" y="776"/>
      <point x="157" y="791"/>
      <point x="125" y="791" type="curve" smooth="yes"/>
      <point x="81" y="791"/>
      <point x="50" y="760"/>
      <point x="50" y="716" type="curve" smooth="yes"/>
      <point x="50" y="675"/>
      <point x="69" y="648"/>
    </contour>
  </outline>
</glyph>
<glyph name="masoracircle-hb" format="2">
  <unicode hex="05AF"/>
  <note>
uni05AF
</note>
  <anchor x="151" y="553" name="_top"/>
  <outline>
    <contour>
      <point x="151" y="632" type="curve" smooth="yes"/>
      <point x="208" y="632"/>
      <point x="252" y="677"/>
      <point x="252" y="733" type="curve" smooth="yes"/>
      <point x="252" y="789"/>
      <point x="207" y="834"/>
      <point x="151" y="834" type="curve" smooth="yes"/>
      <point x="95" y="834"/>
      <point x="50" y="789"/>
      <point x="50" y="733" type="curve" smooth="yes"/>
      <point x="50" y="677"/>
      <point x="94" y="632"/>
    </contour>
    <contour>
      <point x="151" y="679" type="curve" smooth="yes"/>
      <point x="121" y="679"/>
      <point x="97" y="703"/>
      <point x="97" y="733" type="curve" smooth="yes"/>
      <point x="97" y="763"/>
      <point x="122" y="787"/>
      <point x="151" y="787" type="curve" smooth="yes"/>
      <point x="180" y="787"/>
      <point x="205" y="763"/>
      <point x="205" y="733" type="curve" smooth="yes"/>
      <point x="205" y="703"/>
      <point x="181" y="679"/>
    </contour>
  </outline>
</glyph>
<glyph name="sheva-hb" format="2">
  <unicode hex="05B0"/>
  <note>
sheva
</note>
  <anchor x="101" y="0" name="_bottom"/>
  <outline>
    <contour>
      <point x="101" y="-142" type="curve" smooth="yes"/>
      <point x="121" y="-142"/>
      <point x="138" y="-125"/>
      <point x="138" y="-105" type="curve" smooth="yes"/>
      <point x="138" y="-85"/>
      <point x="121" y="-68"/>
      <point x="101" y="-68" type="curve" smooth="yes"/>
      <point x="81" y="-68"/>
      <point x="64" y="-85"/>
      <point x="64" y="-105" type="curve" smooth="yes"/>
      <point x="64" y="-125"/>
      <point x="81" y="-142"/>
    </contour>
    <contour>
      <point x="101" y="-247" type="curve" smooth="yes"/>
      <point x="121" y="-247"/>
      <point x="138" y="-230"/>
      <point x="138" y="-210" type="curve" smooth="yes"/>
      <point x="138" y="-190"/>
      <point x="121" y="-173"/>
      <point x="101" y="-173" type="curve" smooth="yes"/>
      <point x="81" y="-173"/>
      <point x="64" y="-190"/>
      <point x="64" y="-210" type="curve" smooth="yes"/>
      <point x="64" y="-230"/>
      <point x="81" y="-247"/>
    </contour>
  </outline>
</glyph>
<glyph name="hatafsegol-hb" format="2">
  <unicode hex="05B1"/>
  <note>
hatafsegol
</note>
  <anchor x="231" y="0" name="_bottom"/>
  <outline>
    <contour>
      <point x="165" y="-247" type="curve" smooth="yes"/>
      <point x="185" y="-247"/>
      <point x="202" y="-230"/>
      <point x="202" y="-210" type="curve" smooth="yes"/>
      <point x="202" y="-190"/>
      <point x="185" y="-173"/>
      <point x="165" y="-173" type="curve" smooth="yes"/>
      <point x="145" y="-173"/>
      <point x="128" y="-190"/>
      <point x="128" y="-210" type="curve" smooth="yes"/>
      <point x="128" y="-230"/>
      <point x="145" y="-247"/>
    </contour>
    <contour>
      <point x="101" y="-142" type="curve" smooth="yes"/>
      <point x="121" y="-142"/>
      <point x="138" y="-125"/>
      <point x="138" y="-105" type="curve" smooth="yes"/>
      <point x="138" y="-85"/>
      <point x="121" y="-68"/>
      <point x="101" y="-68" type="curve" smooth="yes"/>
      <point x="81" y="-68"/>
      <point x="64" y="-85"/>
      <point x="64" y="-105" type="curve" smooth="yes"/>
      <point x="64" y="-125"/>
      <point x="81" y="-142"/>
    </contour>
    <contour>
      <point x="230" y="-142" type="curve" smooth="yes"/>
      <point x="250" y="-142"/>
      <point x="267" y="-125"/>
      <point x="267" y="-105" type="curve" smooth="yes"/>
      <point x="267" y="-85"/>
      <point x="250" y="-68"/>
      <point x="230" y="-68" type="curve" smooth="yes"/>
      <point x="210" y="-68"/>
      <point x="193" y="-85"/>
      <point x="193" y="-105" type="curve" smooth="yes"/>
      <point x="193" y="-125"/>
      <point x="210" y="-142"/>
    </contour>
    <contour>
      <point x="361" y="-142" type="curve" smooth="yes"/>
      <point x="381" y="-142"/>
      <point x="398" y="-125"/>
      <point x="398" y="-105" type="curve" smooth="yes"/>
      <point x="398" y="-85"/>
      <point x="381" y="-68"/>
      <point x="361" y="-68" type="curve" smooth="yes"/>
      <point x="341" y="-68"/>
      <point x="324" y="-85"/>
      <point x="324" y="-105" type="curve" smooth="yes"/>
      <point x="324" y="-125"/>
      <point x="341" y="-142"/>
    </contour>
    <contour>
      <point x="361" y="-247" type="curve" smooth="yes"/>
      <point x="381" y="-247"/>
      <point x="398" y="-230"/>
      <point x="398" y="-210" type="curve" smooth="yes"/>
      <point x="398" y="-190"/>
      <point x="381" y="-173"/>
      <point x="361" y="-173" type="curve" smooth="yes"/>
      <point x="341" y="-173"/>
      <point x="324" y="-190"/>
      <point x="324" y="-210" type="curve" smooth="yes"/>
      <point x="324" y="-230"/>
      <point x="341" y="-247"/>
    </contour>
  </outline>
</glyph>
<glyph name="hatafpatah-hb" format="2">
  <unicode hex="05B2"/>
  <note>
hatafpatah
</note>
  <anchor x="232" y="0" name="_bottom"/>
  <outline>
    <contour>
      <point x="55" y="-136" type="line"/>
      <point x="277" y="-136" type="line"/>
      <point x="277" y="-74" type="line"/>
      <point x="55" y="-74" type="line"/>
    </contour>
    <contour>
      <point x="362" y="-142" type="curve" smooth="yes"/>
      <point x="382" y="-142"/>
      <point x="399" y="-125"/>
      <point x="399" y="-105" type="curve" smooth="yes"/>
      <point x="399" y="-85"/>
      <point x="382" y="-68"/>
      <point x="362" y="-68" type="curve" smooth="yes"/>
      <point x="342" y="-68"/>
      <point x="325" y="-85"/>
      <point x="325" y="-105" type="curve" smooth="yes"/>
      <point x="325" y="-125"/>
      <point x="342" y="-142"/>
    </contour>
    <contour>
      <point x="362" y="-247" type="curve" smooth="yes"/>
      <point x="382" y="-247"/>
      <point x="399" y="-230"/>
      <point x="399" y="-210" type="curve" smooth="yes"/>
      <point x="399" y="-190"/>
      <point x="382" y="-173"/>
      <point x="362" y="-173" type="curve" smooth="yes"/>
      <point x="342" y="-173"/>
      <point x="325" y="-190"/>
      <point x="325" y="-210" type="curve" smooth="yes"/>
      <point x="325" y="-230"/>
      <point x="342" y="-247"/>
    </contour>
  </outline>
</glyph>
<glyph name="patah-hb" format="2">
  <unicode hex="05B7"/>
  <note>
patah
</note>
  <anchor x="166" y="0" name="_bottom"/>
  <outline>
    <contour>
      <point x="55" y="-136" type="line"/>
      <point x="277" y="-136" type="line"/>
      <point x="277" y="-74" type="line"/>
      <point x="55" y="-74" type="line"/>
    </contour>
  </outline>
</glyph>
<glyph name="siluqleft-hb" format="2">
  <unicode hex="05BD"/>
  <note>
meteg
</note>
  <anchor x="86" y="0" name="_bottomleft"/>
  <outline>
    <contour>
      <point x="55" y="-247" type="line"/>
      <point x="116" y="-247" type="line"/>
      <point x="116" y="-74" type="line"/>
      <point x="55" y="-74" type="line"/>
    </contour>
  </outline>
</glyph>
<glyph name="maqaf-hb" format="2">
  <advance width="326"/>
  <unicode hex="05BE"/>
  <outline>
    <contour>
      <point x="25" y="451" type="line"/>
      <point x="301" y="451" type="line"/>
      <point x="301" y="609" type="line"/>
      <point x="25" y="609" type="line"/>
    </contour>
  </outline>
</glyph>
<glyph name="rafe-hb" format="2">
  <unicode hex="05BF"/>
  <note>
rafe
</note>
  <anchor x="181" y="553" name="_top"/>
  <outline>
    <contour>
      <point x="55" y="684" type="line"/>
      <point x="307" y="684" type="line"/>
      <point x="307" y="746" type="line"/>
      <point x="55" y="746" type="line"/>
    </contour>
  </outline>
</glyph>
<glyph name="paseq-hb" format="2">
  <advance width="509"/>
  <unicode hex="05C0"/>
  <note>
paseq
</note>
  <outline>
    <contour>
      <point x="189" y="760" type="line"/>
      <point x="189" y="-218" type="line"/>
      <point x="320" y="-218" type="line"/>
      <point x="320" y="760" type="line"/>
    </contour>
  </outline>
</glyph>
<glyph name="shindot-hb" format="2">
  <unicode hex="05C1"/>
  <note>
shindot
</note>
  <anchor x="101" y="553" name="_topright"/>
  <outline>
    <contour>
      <point x="100" y="678" type="curve" smooth="yes"/>
      <point x="120" y="678"/>
      <point x="137" y="695"/>
      <point x="137" y="715" type="curve" smooth="yes"/>
      <point x="137" y="735"/>
      <point x="120" y="752"/>
      <point x="100" y="752" type="curve" smooth="yes"/>
      <point x="80" y="752"/>
      <point x="63" y="735"/>
      <point x="63" y="715" type="curve" smooth="yes"/>
      <point x="63" y="695"/>
      <point x="80" y="678"/>
    </contour>
  </outline>
</glyph>
<glyph name="sofpasuq-hb" format="2">
  <advance width="289"/>
  <unicode hex="05C3"/>
  <note>
sofpasuq
</note>
  <outline>
    <contour>
      <point x="42" y="81" type="curve"/>
      <point x="42" y="15"/>
      <point x="89" y="-12"/>
      <point x="146" y="-12" type="curve" smooth="yes"/>
      <point x="200" y="-12"/>
      <point x="246" y="15"/>
      <point x="246" y="81" type="curve" smooth="yes"/>
      <point x="246" y="150"/>
      <point x="200" y="175"/>
      <point x="146" y="175" type="curve" smooth="yes"/>
      <point x="89" y="175"/>
      <point x="42" y="150"/>
    </contour>
    <contour>
      <point x="42" y="467" type="curve"/>
      <point x="42" y="400"/>
      <point x="89" y="373"/>
      <point x="146" y="373" type="curve" smooth="yes"/>
      <point x="200" y="373"/>
      <point x="246" y="400"/>
      <point x="246" y="467" type="curve" smooth="yes"/>
      <point x="246" y="535"/>
      <point x="200" y="560"/>
      <point x="146" y="560" type="curve" smooth="yes"/>
      <point x="89" y="560"/>
      <point x="42" y="535"/>
    </contour>
  </outline>
</glyph>
<glyph name="nunhafukha-hb" format="2">
  <advance width="474"/>
  <unicode hex="05C6"/>
  <note>
uni05C6
</note>
  <outline>
    <contour>
      <point x="70" y="0" type="line"/>
      <point x="449" y="0" type="line"/>
      <point x="449" y="158" type="line"/>
      <point x="262" y="158" type="line"/>
      <point x="262" y="416" type="line" smooth="yes"/>
      <point x="262" y="440"/>
      <point x="271" y="451"/>
      <point x="296" y="451" type="curve" smooth="yes"/>
      <point x="416" y="451" type="line"/>
      <point x="416" y="609" type="line"/>
      <point x="243" y="609" type="line" smooth="yes"/>
      <point x="126" y="609"/>
      <point x="70" y="540"/>
      <point x="70" y="435" type="curve" smooth="yes"/>
    </contour>
  </outline>
</glyph>
<glyph name="qamatsqatan-hb" format="2">
  <unicode hex="05C7"/>
  <note>
qamatsqatan
</note>
  <anchor x="146" y="0" name="_bottom"/>
  <outline>
    <contour>
      <point x="115" y="-210" type="line"/>
      <point x="176" y="-210" type="line"/>
      <point x="176" y="-136" type="line"/>
      <point x="237" y="-136" type="line"/>
      <point x="237" y="-74" type="line"/>
      <point x="55" y="-74" type="line"/>
      <point x="55" y="-136" type="line"/>
      <point x="115" y="-136" type="line"/>
    </contour>
  </outline>
</glyph>
<glyph name="alef-hb" format="2">
  <advance width="705"/>
  <unicode hex="05D0"/>
  <anchor x="351" y="0" name="bottom"/>
  <anchor x="205" y="0" name="bottomleft"/>
  <anchor x="311" y="91" name="center"/>
  <anchor x="355" y="553" name="top"/>
  <anchor x="34" y="553" name="topleft"/>
  <outline>
    <contour>
      <point x="462" y="0" type="curve"/>
      <point x="685" y="0" type="line"/>
      <point x="589" y="152"/>
      <point x="487" y="283"/>
      <point x="392" y="434" type="curve" smooth="yes"/>
      <point x="370" y="469"/>
      <point x="307" y="561"/>
      <point x="268" y="609" type="curve"/>
      <point x="32" y="609" type="line"/>
      <point x="66" y="570"/>
      <point x="164" y="438"/>
      <point x="210" y="381" type="curve" smooth="yes"/>
      <point x="311" y="256"/>
      <point x="374" y="152"/>
    </contour>
    <contour>
      <point x="20" y="0" type="line"/>
      <point x="211" y="0" type="line"/>
      <point x="234" y="145" type="line" smooth="yes"/>
      <point x="243" y="203"/>
      <point x="248" y="264"/>
      <point x="300" y="279" type="curve"/>
      <point x="245" y="402" type="line"/>
      <point x="97" y="367"/>
      <point x="60" y="261"/>
      <point x="44" y="158" type="curve" smooth="yes"/>
    </contour>
    <contour>
      <point x="458" y="243" type="line"/>
      <point x="608" y="278"/>
      <point x="659" y="384"/>
      <point x="670" y="487" type="curve" smooth="yes"/>
      <point x="683" y="609" type="line"/>
      <point x="492" y="609" type="line"/>
      <point x="478" y="500" type="line" smooth="yes"/>
      <point x="471" y="445"/>
      <point x="467" y="381"/>
      <point x="404" y="366" type="curve"/>
    </contour>
  </outline>
</glyph>
<glyph name="bet-hb" format="2">
  <advance width="609"/>
  <unicode hex="05D1"/>
  <anchor x="310" y="0" name="bottom"/>
  <anchor x="15" y="0" name="bottomleft"/>
  <anchor x="185" y="306" name="center"/>
  <anchor x="247" y="553" name="top"/>
  <anchor x="15" y="553" name="topleft"/>
  <outline>
    <contour>
      <point x="326" y="0" type="line"/>
      <point x="433" y="0" type="line"/>
      <point x="466" y="45"/>
      <point x="504" y="98"/>
      <point x="518" y="147" type="curve"/>
      <point x="518" y="382" type="line" smooth="yes"/>
      <point x="518" y="533"/>
      <point x="433" y="609"/>
      <point x="266" y="609" type="curve" smooth="yes"/>
      <point x="75" y="609" type="line"/>
      <point x="55" y="451" type="line"/>
      <point x="257" y="451" type="line" smooth="yes"/>
      <point x="300" y="451"/>
      <point x="326" y="427"/>
      <point x="326" y="379" type="curve" smooth="yes"/>
    </contour>
    <contour>
      <point x="25" y="0" type="line"/>
      <point x="574" y="0" type="line"/>
      <point x="594" y="158" type="line"/>
      <point x="25" y="158" type="line"/>
    </contour>
  </outline>
</glyph>
<glyph name="gimel-hb" format="2">
  <advance width="437"/>
  <unicode hex="05D2"/>
  <anchor x="201" y="0" name="bottom"/>
  <anchor x="2" y="0" name="bottomleft"/>
  <anchor x="101" y="306" name="center"/>
  <anchor x="213" y="553" name="top"/>
  <anchor x="40" y="553" name="topleft"/>
  <outline>
    <contour>
      <point x="244" y="-5" type="line"/>
      <point x="414" y="23" type="line"/>
      <point x="386" y="186" type="line"/>
      <point x="386" y="409" type="line" smooth="yes"/>
      <point x="386" y="539"/>
      <point x="320" y="609"/>
      <point x="169" y="609" type="curve" smooth="yes"/>
      <point x="80" y="609" type="line"/>
      <point x="60" y="450" type="line"/>
      <point x="116" y="450" type="line" smooth="yes"/>
      <point x="175" y="450"/>
      <point x="194" y="439"/>
      <point x="194" y="390" type="curve" smooth="yes"/>
      <point x="194" y="223" type="line"/>
      <point x="172" y="197"/>
      <point x="125" y="164"/>
      <point x="50" y="162" type="curve"/>
      <point x="20" y="162" type="line"/>
      <point x="20" y="0" type="line"/>
      <point x="50" y="0" type="line" smooth="yes"/>
      <point x="137" y="0"/>
      <point x="166" y="23"/>
      <point x="209" y="122" type="curve"/>
      <point x="222" y="122" type="line"/>
    </contour>
  </outline>
</glyph>
<glyph name="dalet-hb" format="2">
  <advance width="590"/>
  <unicode hex="05D3"/>
  <anchor x="378" y="0" name="bottom"/>
  <anchor x="-15" y="0" name="bottomleft"/>
  <anchor x="129" y="306" name="center"/>
  <anchor x="280" y="553" name="top"/>
  <anchor x="-25" y="553" name="topleft"/>
  <outline>
    <contour>
      <point x="35" y="451" type="line"/>
      <point x="555" y="451" type="line"/>
      <point x="575" y="609" type="line"/>
      <point x="35" y="609" type="line"/>
    </contour>
    <contour>
      <point x="282" y="0" type="line"/>
      <point x="474" y="0" type="line"/>
      <point x="474" y="384" type="line"/>
      <point x="474" y="416"/>
      <point x="474" y="439"/>
      <point x="495" y="451" type="curve"/>
      <point x="342" y="451" type="line"/>
      <point x="293" y="427"/>
      <point x="282" y="366"/>
      <point x="282" y="336" type="curve"/>
    </contour>
  </outline>
</glyph>
<glyph name="he-hb" format="2">
  <advance width="679"/>
  <unicode hex="05D4"/>
  <anchor x="330" y="0" name="bottom"/>
  <anchor x="35" y="0" name="bottomleft"/>
  <anchor x="327" y="306" name="center"/>
  <anchor x="330" y="553" name="top"/>
  <anchor x="35" y="553" name="topleft"/>
  <outline>
    <contour>
      <point x="437" y="0" type="line"/>
      <point x="629" y="0" type="line"/>
      <point x="629" y="382" type="line" smooth="yes"/>
      <point x="629" y="533"/>
      <point x="544" y="609"/>
      <point x="377" y="609" type="curve" smooth="yes"/>
      <point x="70" y="609" type="line"/>
      <point x="50" y="451" type="line"/>
      <point x="368" y="451" type="line" smooth="yes"/>
      <point x="411" y="451"/>
      <point x="437" y="427"/>
      <point x="437" y="379" type="curve" smooth="yes"/>
    </contour>
    <contour>
      <point x="60" y="0" type="line"/>
      <point x="252" y="0" type="line"/>
      <point x="252" y="326" type="line"/>
      <point x="60" y="316" type="line"/>
    </contour>
  </outline>
</glyph>
<glyph name="vav-hb" format="2">
  <advance width="362"/>
  <unicode hex="05D5"/>
  <anchor x="206" y="0" name="bottom"/>
  <anchor x="72" y="0" name="bottomleft"/>
  <anchor x="29" y="306" name="center"/>
  <anchor x="206" y="553" name="top"/>
  <anchor x="206" y="553" name="topleft"/>
  <outline>
    <contour>
      <point x="110" y="0" type="line"/>
      <point x="302" y="0" type="line"/>
      <point x="302" y="609" type="line"/>
      <point x="110" y="609" type="line"/>
    </contour>
    <contour>
      <point x="35" y="451" type="line"/>
      <point x="237" y="451" type="line"/>
      <point x="237" y="609" type="line"/>
      <point x="55" y="609" type="line"/>
    </contour>
  </outline>
</glyph>
<glyph name="zayin-hb" format="2">
  <advance width="398"/>
  <unicode hex="05D6"/>
  <anchor x="199" y="0" name="bottom"/>
  <anchor x="14" y="0" name="bottomleft"/>
  <anchor x="4" y="306" name="center"/>
  <anchor x="205" y="553" name="top"/>
  <anchor x="29" y="553" name="topleft"/>
  <outline>
    <contour>
      <point x="103" y="3" type="curve"/>
      <point x="303" y="3" type="line"/>
      <point x="295" y="48"/>
      <point x="259" y="223"/>
      <point x="253" y="288" type="curve" smooth="yes"/>
      <point x="247" y="356"/>
      <point x="254" y="417"/>
      <point x="363" y="451" type="curve"/>
      <point x="200" y="455" type="line"/>
      <point x="79" y="405"/>
      <point x="66" y="329"/>
      <point x="66" y="262" type="curve" smooth="yes"/>
      <point x="66" y="197"/>
      <point x="81" y="92"/>
    </contour>
    <contour>
      <point x="37" y="451" type="line"/>
      <point x="363" y="451" type="line"/>
      <point x="383" y="609" type="line"/>
      <point x="37" y="609" type="line"/>
    </contour>
  </outline>
</glyph>
<glyph name="het-hb" format="2">
  <advance width="704"/>
  <unicode hex="05D7"/>
  <anchor x="349" y="0" name="bottom"/>
  <anchor x="45" y="0" name="bottomleft"/>
  <anchor x="349" y="306" name="center"/>
  <anchor x="344" y="553" name="top"/>
  <anchor x="45" y="553" name="topleft"/>
  <outline>
    <contour>
      <point x="397" y="609" type="curve" smooth="yes"/>
      <point x="115" y="609" type="line"/>
      <point x="115" y="457" type="line"/>
      <point x="115" y="447" type="line"/>
      <point x="79" y="403"/>
      <point x="75" y="364"/>
      <point x="75" y="316" type="curve"/>
      <point x="75" y="0" type="line"/>
      <point x="267" y="0" type="line"/>
      <point x="267" y="377" type="line"/>
      <point x="267" y="429"/>
      <point x="270" y="441"/>
      <point x="277" y="451" type="curve"/>
      <point x="388" y="451" type="line" smooth="yes"/>
      <point x="431" y="451"/>
      <point x="457" y="427"/>
      <point x="457" y="379" type="curve" smooth="yes"/>
      <point x="457" y="0" type="line"/>
      <point x="649" y="0" type="line"/>
      <point x="649" y="382" type="line" smooth="yes"/>
      <point x="649" y="533"/>
      <point x="564" y="609"/>
    </contour>
    <contour>
      <point x="25" y="451" type="line"/>
      <point x="367" y="451" type="line"/>
      <point x="367" y="609" type="line"/>
      <point x="45" y="609" type="line"/>
    </contour>
  </outline>
</glyph>
<glyph name="tet-hb" format="2">
  <advance width="678"/>
  <unicode hex="05D8"/>
  <anchor x="342" y="-9" name="bottom"/>
  <anchor x="12" y="0" name="bottomleft"/>
  <anchor x="345" y="306" name="center"/>
  <anchor x="325" y="553" name="top"/>
  <anchor x="2" y="553" name="topleft"/>
  <outline>
    <contour>
      <point x="342" y="-9" type="curve" smooth="yes"/>
      <point x="535" y="-9"/>
      <point x="643" y="107"/>
      <point x="643" y="330" type="curve" smooth="yes"/>
      <point x="643" y="513"/>
      <point x="573" y="613"/>
      <point x="426" y="617" type="curve" smooth="yes"/>
      <point x="384" y="618"/>
      <point x="353" y="611"/>
      <point x="312" y="603" type="curve"/>
      <point x="312" y="451" type="line"/>
      <point x="341" y="459"/>
      <point x="361" y="466"/>
      <point x="391" y="464" type="curve" smooth="yes"/>
      <point x="436" y="461"/>
      <point x="452" y="413"/>
      <point x="452" y="330" type="curve" smooth="yes"/>
      <point x="452" y="208"/>
      <point x="408" y="144"/>
      <point x="338" y="144" type="curve" smooth="yes"/>
      <point x="269" y="144"/>
      <point x="226" y="208"/>
      <point x="226" y="330" type="curve" smooth="yes"/>
      <point x="226" y="609" type="line"/>
      <point x="35" y="609" type="line"/>
      <point x="35" y="330" type="line" smooth="yes"/>
      <point x="35" y="107"/>
      <point x="145" y="-9"/>
    </contour>
  </outline>
</glyph>
<glyph name="yod-hb" format="2">
  <advance width="357"/>
  <unicode hex="05D9"/>
  <anchor x="206" y="0" name="bottom"/>
  <anchor x="10" y="0" name="bottomleft"/>
  <anchor x="35" y="350" name="center"/>
  <anchor x="206" y="553" name="top"/>
  <anchor x="110" y="553" name="topleft"/>
  <outline>
    <contour>
      <point x="110" y="248" type="line"/>
      <point x="302" y="248" type="line"/>
      <point x="302" y="609" type="line"/>
      <point x="110" y="609" type="line"/>
    </contour>
    <contour>
      <point x="35" y="451" type="line"/>
      <point x="217" y="451" type="line"/>
      <point x="217" y="609" type="line"/>
      <point x="55" y="609" type="line"/>
    </contour>
  </outline>
</glyph>
<glyph name="finalkaf-hb" format="2">
  <advance width="587"/>
  <unicode hex="05DA"/>
  <anchor x="173" y="271" name="bottom"/>
  <anchor x="5" y="0" name="bottomleft"/>
  <anchor x="173" y="306" name="center"/>
  <anchor x="269" y="553" name="top"/>
  <anchor x="-5" y="553" name="topleft"/>
  <outline>
    <contour>
      <point x="350" y="-180" type="line"/>
      <point x="542" y="-170" type="line"/>
      <point x="542" y="367" type="line" smooth="yes"/>
      <point x="542" y="526"/>
      <point x="451" y="609"/>
      <point x="278" y="609" type="curve" smooth="yes"/>
      <point x="55" y="609" type="line"/>
      <point x="35" y="451" type="line"/>
      <point x="270" y="451" type="line" smooth="yes"/>
      <point x="323" y="451"/>
      <point x="350" y="422"/>
      <point x="350" y="367" type="curve" smooth="yes"/>
    </contour>
  </outline>
</glyph>
<glyph name="kaf-hb" format="2">
  <advance width="537"/>
  <unicode hex="05DB"/>
  <anchor x="174" y="0" name="bottom"/>
  <anchor x="-25" y="0" name="bottomleft"/>
  <anchor x="165" y="306" name="center"/>
  <anchor x="175" y="553" name="top"/>
  <anchor x="-8" y="553" name="topleft"/>
  <outline>
    <contour>
      <point x="25" y="0" type="line"/>
      <point x="213" y="0" type="line" smooth="yes"/>
      <point x="407" y="0"/>
      <point x="512" y="110"/>
      <point x="512" y="297" type="curve" smooth="yes"/>
      <point x="512" y="493"/>
      <point x="407" y="609"/>
      <point x="213" y="609" type="curve" smooth="yes"/>
      <point x="45" y="609" type="line"/>
      <point x="25" y="451" type="line"/>
      <point x="213" y="451" type="line" smooth="yes"/>
      <point x="285" y="451"/>
      <point x="317" y="394"/>
      <point x="317" y="297" type="curve" smooth="yes"/>
      <point x="317" y="210"/>
      <point x="285" y="158"/>
      <point x="213" y="158" type="curve" smooth="yes"/>
      <point x="25" y="158" type="line"/>
    </contour>
  </outline>
</glyph>
<glyph name="lamed-hb" format="2">
  <advance width="578"/>
  <unicode hex="05DC"/>
  <anchor x="263" y="0" name="bottom"/>
  <anchor x="219" y="0" name="bottomleft"/>
  <anchor x="125" y="306" name="center"/>
  <anchor x="357" y="553" name="top"/>
  <anchor x="-93" y="553" name="topleft"/>
  <outline>
    <contour>
      <point x="212" y="609" type="line"/>
      <point x="212" y="760" type="line"/>
      <point x="20" y="740" type="line"/>
      <point x="20" y="451" type="line"/>
      <point x="330" y="451" type="line"/>
      <point x="162" y="0" type="line"/>
      <point x="362" y="0" type="line"/>
      <point x="541" y="499" type="line"/>
      <point x="553" y="609" type="line"/>
    </contour>
  </outline>
</glyph>
<glyph name="finalmem-hb" format="2">
  <advance width="714"/>
  <unicode hex="05DD"/>
  <anchor x="357" y="0" name="bottom"/>
  <anchor x="55" y="0" name="bottomleft"/>
  <anchor x="357" y="304" name="center"/>
  <anchor x="357" y="553" name="top"/>
  <anchor x="55" y="553" name="topleft"/>
  <outline>
    <contour>
      <point x="407" y="609" type="curve" smooth="yes"/>
      <point x="55" y="609" type="line"/>
      <point x="35" y="451" type="line"/>
      <point x="145" y="451" type="line"/>
      <point x="96" y="427"/>
      <point x="85" y="366"/>
      <point x="85" y="336" type="curve" smooth="yes"/>
      <point x="85" y="0" type="line"/>
      <point x="659" y="0" type="line"/>
      <point x="659" y="382" type="line" smooth="yes"/>
      <point x="659" y="533"/>
      <point x="574" y="609"/>
    </contour>
    <contour>
      <point x="467" y="158" type="line"/>
      <point x="277" y="158" type="line"/>
      <point x="277" y="384" type="line" smooth="yes"/>
      <point x="277" y="406"/>
      <point x="277" y="429"/>
      <point x="287" y="451" type="curve"/>
      <point x="398" y="451" type="line" smooth="yes"/>
      <point x="441" y="451"/>
      <point x="467" y="427"/>
      <point x="467" y="379" type="curve" smooth="yes"/>
    </contour>
  </outline>
</glyph>
<glyph name="mem-hb" format="2">
  <advance width="730"/>
  <unicode hex="05DE"/>
  <anchor x="396" y="0" name="bottom"/>
  <anchor x="157" y="0" name="bottomleft"/>
  <anchor x="396" y="306" name="center"/>
  <anchor x="403" y="553" name="top"/>
  <anchor x="61" y="553" name="topleft"/>
  <outline>
    <contour>
      <point x="44" y="0" type="line"/>
      <point x="243" y="0" type="line"/>
      <point x="295" y="312" type="line" smooth="yes"/>
      <point x="312" y="416"/>
      <point x="338" y="458"/>
      <point x="420" y="458" type="curve" smooth="yes"/>
      <point x="475" y="458"/>
      <point x="518" y="406"/>
      <point x="518" y="320" type="curve" smooth="yes"/>
      <point x="518" y="307" type="line" smooth="yes"/>
      <point x="518" y="221"/>
      <point x="477" y="158"/>
      <point x="409" y="158" type="curve" smooth="yes"/>
      <point x="348" y="158" type="line"/>
      <point x="326" y="0" type="line"/>
      <point x="419" y="0" type="line" smooth="yes"/>
      <point x="602" y="0"/>
      <point x="710" y="126"/>
      <point x="710" y="307" type="curve" smooth="yes"/>
      <point x="710" y="320" type="line" smooth="yes"/>
      <point x="710" y="503"/>
      <point x="609" y="619"/>
      <point x="462" y="619" type="curve" smooth="yes"/>
      <point x="356" y="619"/>
      <point x="295" y="590"/>
      <point x="253" y="486" type="curve"/>
      <point x="247" y="486" type="line"/>
      <point x="217" y="609" type="line"/>
      <point x="25" y="609" type="line"/>
      <point x="110" y="353" type="line"/>
    </contour>
  </outline>
</glyph>
<glyph name="finalnun-hb" format="2">
  <advance width="372"/>
  <unicode hex="05DF"/>
  <anchor x="35" y="0" name="bottomleft"/>
  <anchor x="55" y="306" name="center"/>
  <anchor x="201" y="553" name="top"/>
  <anchor x="25" y="553" name="topleft"/>
  <outline>
    <contour>
      <point x="110" y="-180" type="line"/>
      <point x="302" y="-170" type="line"/>
      <point x="302" y="609" type="line"/>
      <point x="110" y="609" type="line"/>
    </contour>
    <contour>
      <point x="35" y="451" type="line"/>
      <point x="237" y="451" type="line"/>
      <point x="237" y="609" type="line"/>
      <point x="55" y="609" type="line"/>
    </contour>
  </outline>
</glyph>
<glyph name="nun-hb" format="2">
  <advance width="421"/>
  <unicode hex="05E0"/>
  <anchor x="177" y="0" name="bottom"/>
  <anchor x="-43" y="0" name="bottomleft"/>
  <anchor x="81" y="306" name="center"/>
  <anchor x="193" y="553" name="top"/>
  <anchor x="20" y="553" name="topleft"/>
  <outline>
    <contour>
      <point x="175" y="0" type="line"/>
      <point x="367" y="0" type="line"/>
      <point x="367" y="411" type="line" smooth="yes"/>
      <point x="367" y="540"/>
      <point x="301" y="609"/>
      <point x="156" y="609" type="curve" smooth="yes"/>
      <point x="75" y="609" type="line"/>
      <point x="55" y="451" type="line"/>
      <point x="103" y="451" type="line" smooth="yes"/>
      <point x="156" y="451"/>
      <point x="175" y="440"/>
      <point x="175" y="392" type="curve" smooth="yes"/>
    </contour>
    <contour>
      <point x="35" y="0" type="line"/>
      <point x="267" y="0" type="line"/>
      <point x="267" y="158" type="line"/>
      <point x="35" y="158" type="line"/>
    </contour>
  </outline>
</glyph>
<glyph name="samekh-hb" format="2">
  <advance width="704"/>
  <unicode hex="05E1"/>
  <anchor x="361" y="0" name="bottom"/>
  <anchor x="35" y="0" name="bottomleft"/>
  <anchor x="362" y="306" name="center"/>
  <anchor x="362" y="553" name="top"/>
  <anchor x="-9" y="553" name="topleft"/>
  <outline>
    <contour>
      <point x="363" y="-9" type="curve" smooth="yes"/>
      <point x="565" y="-9"/>
      <point x="669" y="113"/>
      <point x="669" y="320" type="curve" smooth="yes"/>
      <point x="669" y="502"/>
      <point x="578" y="609"/>
      <point x="379" y="609" type="curve" smooth="yes"/>
      <point x="55" y="609" type="line"/>
      <point x="35" y="451" type="line"/>
      <point x="379" y="451" type="line" smooth="yes"/>
      <point x="458" y="451"/>
      <point x="478" y="403"/>
      <point x="478" y="322" type="curve" smooth="yes"/>
      <point x="478" y="210"/>
      <point x="445" y="144"/>
      <point x="363" y="144" type="curve" smooth="yes"/>
      <point x="279" y="144"/>
      <point x="246" y="207"/>
      <point x="246" y="314" type="curve" smooth="yes"/>
      <point x="246" y="400"/>
      <point x="260" y="451"/>
      <point x="305" y="451" type="curve"/>
      <point x="305" y="461" type="line"/>
      <point x="149" y="460" type="line"/>
      <point x="149" y="445" type="line"/>
      <point x="94" y="428"/>
      <point x="55" y="363"/>
      <point x="55" y="268" type="curve"/>
      <point x="55" y="260" type="line" smooth="yes"/>
      <point x="55" y="92"/>
      <point x="159" y="-9"/>
    </contour>
  </outline>
</glyph>
<glyph name="ayin-hb" format="2">
  <advance width="654"/>
  <unicode hex="05E2"/>
  <anchor x="302" y="0" name="bottom"/>
  <anchor x="-5" y="0" name="bottomleft"/>
  <anchor x="357" y="416" name="center"/>
  <anchor x="342" y="553" name="top"/>
  <anchor x="30" y="553" name="topleft"/>
  <outline>
    <contour>
      <point x="25" y="-40" type="line"/>
      <point x="288" y="10" type="line" smooth="yes"/>
      <point x="568" y="63"/>
      <point x="601" y="251"/>
      <point x="613" y="407" type="curve" smooth="yes"/>
      <point x="629" y="609" type="line"/>
      <point x="437" y="609" type="line"/>
      <point x="422" y="414" type="line" smooth="yes"/>
      <point x="408" y="231"/>
      <point x="369" y="182"/>
      <point x="288" y="167" type="curve" smooth="yes"/>
      <point x="25" y="118" type="line"/>
    </contour>
    <contour>
      <point x="158" y="67" type="line"/>
      <point x="229" y="67" type="line"/>
      <point x="289" y="122"/>
      <point x="317" y="214"/>
      <point x="301" y="291" type="curve"/>
      <point x="245" y="619" type="line"/>
      <point x="57" y="597" type="line"/>
    </contour>
  </outline>
</glyph>
<glyph name="finalpe-hb" format="2">
  <advance width="676"/>
  <unicode hex="05E3"/>
  <anchor x="348" y="225" name="bottom"/>
  <anchor x="21" y="0" name="bottomleft"/>
  <anchor x="354" y="282" name="center"/>
  <anchor x="309" y="553" name="top"/>
  <anchor x="6" y="553" name="topleft"/>
  <outline>
    <contour>
      <point x="429" y="-180" type="line"/>
      <point x="621" y="-170" type="line"/>
      <point x="621" y="311" type="line" smooth="yes"/>
      <point x="621" y="502"/>
      <point x="508" y="619"/>
      <point x="309" y="619" type="curve" smooth="yes"/>
      <point x="124" y="619"/>
      <point x="35" y="529"/>
      <point x="35" y="404" type="curve" smooth="yes"/>
      <point x="35" y="300"/>
      <point x="93" y="227"/>
      <point x="178" y="209" type="curve" smooth="yes"/>
      <point x="220" y="200"/>
      <point x="249" y="197"/>
      <point x="270" y="201" type="curve"/>
      <point x="286" y="337" type="line"/>
      <point x="276" y="337"/>
      <point x="262" y="341"/>
      <point x="250" y="347" type="curve" smooth="yes"/>
      <point x="230" y="357"/>
      <point x="218" y="374"/>
      <point x="218" y="398" type="curve" smooth="yes"/>
      <point x="218" y="435"/>
      <point x="241" y="461"/>
      <point x="309" y="461" type="curve" smooth="yes"/>
      <point x="396" y="461"/>
      <point x="429" y="403"/>
      <point x="429" y="310" type="curve" smooth="yes"/>
    </contour>
  </outline>
</glyph>
<glyph name="pe-hb" format="2">
  <advance width="646"/>
  <unicode hex="05E4"/>
  <anchor x="312" y="0" name="bottom"/>
  <anchor x="38" y="0" name="bottomleft"/>
  <anchor x="344" y="323" name="center"/>
  <anchor x="319" y="553" name="top"/>
  <anchor x="38" y="553" name="topleft"/>
  <outline>
    <contour>
      <point x="48" y="0" type="line"/>
      <point x="260" y="0" type="line" smooth="yes"/>
      <point x="487" y="0"/>
      <point x="616" y="113"/>
      <point x="616" y="310" type="curve" smooth="yes"/>
      <point x="616" y="502"/>
      <point x="503" y="619"/>
      <point x="304" y="619" type="curve" smooth="yes"/>
      <point x="119" y="619"/>
      <point x="30" y="529"/>
      <point x="30" y="404" type="curve" smooth="yes"/>
      <point x="30" y="300"/>
      <point x="88" y="228"/>
      <point x="173" y="209" type="curve" smooth="yes"/>
      <point x="215" y="200"/>
      <point x="244" y="197"/>
      <point x="265" y="201" type="curve"/>
      <point x="281" y="337" type="line"/>
      <point x="271" y="337"/>
      <point x="257" y="341"/>
      <point x="245" y="347" type="curve" smooth="yes"/>
      <point x="225" y="356"/>
      <point x="213" y="374"/>
      <point x="213" y="398" type="curve" smooth="yes"/>
      <point x="213" y="435"/>
      <point x="236" y="461"/>
      <point x="304" y="461" type="curve" smooth="yes"/>
      <point x="391" y="461"/>
      <point x="421" y="403"/>
      <point x="421" y="310" type="curve" smooth="yes"/>
      <point x="421" y="213"/>
      <point x="372" y="158"/>
      <point x="280" y="158" type="curve" smooth="yes"/>
      <point x="48" y="158" type="line"/>
    </contour>
  </outline>
</glyph>
<glyph name="finaltsadi-hb" format="2">
  <advance width="626"/>
  <unicode hex="05E5"/>
  <anchor x="43" y="0" name="bottomleft"/>
  <anchor x="333" y="504" name="center"/>
  <anchor x="319" y="553" name="top"/>
  <anchor x="21" y="553" name="topleft"/>
  <outline>
    <contour>
      <point x="279" y="-180" type="line"/>
      <point x="471" y="-170" type="line"/>
      <point x="414" y="32" type="line"/>
      <point x="383" y="153"/>
      <point x="341" y="273"/>
      <point x="299" y="394" type="curve" smooth="yes"/>
      <point x="274" y="466"/>
      <point x="243" y="565"/>
      <point x="223" y="609" type="curve"/>
      <point x="14" y="609" type="line"/>
      <point x="53" y="519"/>
      <point x="82" y="448"/>
      <point x="111" y="368" type="curve" smooth="yes"/>
      <point x="152" y="256"/>
      <point x="192" y="144"/>
      <point x="222" y="32" type="curve"/>
    </contour>
    <contour>
      <point x="330" y="177" type="line"/>
      <point x="512" y="205"/>
      <point x="573" y="341"/>
      <point x="591" y="513" type="curve" smooth="yes"/>
      <point x="601" y="609" type="line"/>
      <point x="412" y="609" type="line"/>
      <point x="402" y="526" type="line" smooth="yes"/>
      <point x="387" y="402"/>
      <point x="385" y="328"/>
      <point x="290" y="300" type="curve"/>
    </contour>
  </outline>
</glyph>
<glyph name="tsadi-hb" format="2">
  <advance width="616"/>
  <unicode hex="05E6"/>
  <anchor x="262" y="0" name="bottom"/>
  <anchor x="-20" y="0" name="bottomleft"/>
  <anchor x="110" y="268" name="center"/>
  <anchor x="278" y="553" name="top"/>
  <anchor x="-41" y="553" name="topleft"/>
  <outline>
    <contour>
      <point x="404" y="0" type="line"/>
      <point x="548" y="110" type="line"/>
      <point x="375" y="374" type="line"/>
      <point x="240" y="609" type="line"/>
      <point x="15" y="609" type="line"/>
    </contour>
    <contour>
      <point x="39" y="0" type="line"/>
      <point x="531" y="0" type="line"/>
      <point x="548" y="110" type="line"/>
      <point x="493" y="158" type="line"/>
      <point x="39" y="158" type="line"/>
    </contour>
    <contour>
      <point x="365" y="243" type="line"/>
      <point x="515" y="278"/>
      <point x="566" y="384"/>
      <point x="577" y="487" type="curve" smooth="yes"/>
      <point x="590" y="609" type="line"/>
      <point x="399" y="609" type="line"/>
      <point x="385" y="500" type="line" smooth="yes"/>
      <point x="378" y="445"/>
      <point x="374" y="381"/>
      <point x="311" y="366" type="curve"/>
    </contour>
  </outline>
</glyph>
<glyph name="qof-hb" format="2">
  <advance width="672"/>
  <unicode hex="05E7"/>
  <anchor x="405" y="0" name="bottom"/>
  <anchor x="-39" y="0" name="bottomleft"/>
  <anchor x="318" y="326" name="center"/>
  <anchor x="334" y="553" name="top"/>
  <anchor x="25" y="553" name="topleft"/>
  <outline>
    <contour>
      <point x="311" y="0" type="line"/>
      <point x="503" y="0" type="line"/>
      <point x="642" y="498" type="line"/>
      <point x="652" y="609" type="line"/>
      <point x="55" y="609" type="line"/>
      <point x="35" y="453" type="line"/>
      <point x="437" y="453" type="line"/>
    </contour>
    <contour>
      <point x="55" y="-180" type="line"/>
      <point x="247" y="-170" type="line"/>
      <point x="247" y="346" type="line"/>
      <point x="55" y="336" type="line"/>
    </contour>
  </outline>
</glyph>
<glyph name="resh-hb" format="2">
  <advance width="554"/>
  <unicode hex="05E8"/>
  <anchor x="403" y="0" name="bottom"/>
  <anchor x="152" y="0" name="bottomleft"/>
  <anchor x="152" y="306" name="center"/>
  <anchor x="225" y="553" name="top"/>
  <anchor x="-50" y="553" name="topleft"/>
  <outline>
    <contour>
      <point x="307" y="0" type="line"/>
      <point x="499" y="0" type="line"/>
      <point x="499" y="382" type="line" smooth="yes"/>
      <point x="499" y="533"/>
      <point x="414" y="609"/>
      <point x="247" y="609" type="curve" smooth="yes"/>
      <point x="55" y="609" type="line"/>
      <point x="35" y="451" type="line"/>
      <point x="238" y="451" type="line" smooth="yes"/>
      <point x="281" y="451"/>
      <point x="307" y="427"/>
      <point x="307" y="379" type="curve" smooth="yes"/>
    </contour>
  </outline>
</glyph>
<glyph name="shin-hb" format="2">
  <advance width="824"/>
  <unicode hex="05E9"/>
  <anchor x="416" y="0" name="bottom"/>
  <anchor x="151" y="0" name="bottomleft"/>
  <anchor x="478" y="256" name="center"/>
  <anchor x="413" y="553" name="top"/>
  <anchor x="148" y="553" name="topleft"/>
  <anchor x="679" y="553" name="topright"/>
  <outline>
    <contour>
      <point x="415" y="-9" type="curve" smooth="yes"/>
      <point x="417" y="-9" type="line" smooth="yes"/>
      <point x="634" y="-8"/>
      <point x="769" y="111"/>
      <point x="769" y="368" type="curve" smooth="yes"/>
      <point x="769" y="609" type="line"/>
      <point x="578" y="609" type="line"/>
      <point x="578" y="370" type="line" smooth="yes"/>
      <point x="578" y="203"/>
      <point x="518" y="145"/>
      <point x="412" y="144" type="curve" smooth="yes"/>
      <point x="411" y="144" type="line" smooth="yes"/>
      <point x="306" y="144"/>
      <point x="246" y="203"/>
      <point x="246" y="372" type="curve" smooth="yes"/>
      <point x="246" y="609" type="line"/>
      <point x="55" y="609" type="line"/>
      <point x="55" y="369" type="line" smooth="yes"/>
      <point x="55" y="112"/>
      <point x="193" y="-9"/>
    </contour>
    <contour>
      <point x="191" y="241" type="line"/>
      <point x="444" y="234"/>
      <point x="509" y="358"/>
      <point x="509" y="548" type="curve" smooth="yes"/>
      <point x="509" y="609" type="line"/>
      <point x="318" y="609" type="line"/>
      <point x="318" y="539" type="line" smooth="yes"/>
      <point x="318" y="421"/>
      <point x="308" y="360"/>
      <point x="181" y="368" type="curve"/>
    </contour>
  </outline>
</glyph>
<glyph name="tav-hb" format="2">
  <advance width="746"/>
  <unicode hex="05EA"/>
  <anchor x="412" y="0" name="bottom"/>
  <anchor x="55" y="0" name="bottomleft"/>
  <anchor x="412" y="289" name="center"/>
  <anchor x="412" y="536" name="top"/>
  <anchor x="61" y="553" name="topleft"/>
  <outline>
    <contour>
      <point x="499" y="0" type="line"/>
      <point x="691" y="0" type="line"/>
      <point x="691" y="382" type="line" smooth="yes"/>
      <point x="691" y="533"/>
      <point x="606" y="609"/>
      <point x="439" y="609" type="curve" smooth="yes"/>
      <point x="138" y="609" type="line"/>
      <point x="138" y="451" type="line"/>
      <point x="430" y="451" type="line" smooth="yes"/>
      <point x="473" y="451"/>
      <point x="499" y="427"/>
      <point x="499" y="379" type="curve" smooth="yes"/>
    </contour>
    <contour>
      <point x="35" y="0" type="line"/>
      <point x="132" y="0" type="line" smooth="yes"/>
      <point x="262" y="0"/>
      <point x="330" y="76"/>
      <point x="330" y="221" type="curve" smooth="yes"/>
      <point x="330" y="574" type="line"/>
      <point x="138" y="574" type="line"/>
      <point x="138" y="211" type="line" smooth="yes"/>
      <point x="138" y="176"/>
      <point x="122" y="158"/>
      <point x="91" y="158" type="curve" smooth="yes"/>
      <point x="55" y="158" type="line"/>
    </contour>
    <contour>
      <point x="47" y="451" type="line"/>
      <point x="249" y="451" type="line"/>
      <point x="249" y="609" type="line"/>
      <point x="67" y="609" type="line"/>
    </contour>
  </outline>
</glyph>
<glyph name="geresh-hb" format="2">
  <advance width="247"/>
  <unicode hex="05F3"/>
  <outline>
    <contour>
      <point x="10" y="324" type="curve"/>
      <point x="146" y="324" type="line"/>
      <point x="179" y="398"/>
      <point x="214" y="526"/>
      <point x="232" y="598" type="curve"/>
      <point x="225" y="609" type="line"/>
      <point x="58" y="609" type="line"/>
      <point x="49" y="529"/>
      <point x="29" y="415"/>
    </contour>
  </outline>
</glyph>
<glyph name="gershayim-hb" format="2">
  <advance width="496"/>
  <unicode hex="05F4"/>
  <outline>
    <contour>
      <point x="10" y="324" type="curve"/>
      <point x="146" y="324" type="line"/>
      <point x="179" y="398"/>
      <point x="214" y="526"/>
      <point x="232" y="598" type="curve"/>
      <point x="225" y="609" type="line"/>
      <point x="58" y="609" type="line"/>
      <point x="49" y="529"/>
      <point x="29" y="415"/>
    </contour>
    <contour>
      <point x="259" y="324" type="curve"/>
      <point x="395" y="324" type="line"/>
      <point x="428" y="398"/>
      <point x="463" y="526"/>
      <point x="481" y="598" type="curve"/>
      <point x="474" y="609" type="line"/>
      <point x="307" y="609" type="line"/>
      <point x="298" y="529"/>
      <point x="278" y="415"/>
    </contour>
  </outline>
</glyph>
<glyph name="uni200D" format="2">
  <unicode hex="200D"/>
  <note>
uni200D
</note>
  <outline>
    <contour>
      <point x="18" y="-45" type="line"/>
      <point x="18" y="533" type="line"/>
      <point x="83" y="467" type="line"/>
      <point x="107" y="491" type="line"/>
      <point x="23" y="573" type="line"/>
      <point x="107" y="655" type="line"/>
      <point x="83" y="679" type="line"/>
      <point x="0" y="596" type="line"/>
      <point x="-83" y="679" type="line"/>
      <point x="-107" y="655" type="line"/>
      <point x="-23" y="573" type="line"/>
      <point x="-107" y="491" type="line"/>
      <point x="-83" y="467" type="line"/>
      <point x="-18" y="533" type="line"/>
      <point x="-18" y="-45" type="line"/>
    </contour>
  </outline>
</glyph>
<glyph name="hyphentwo" format="2">
  <advance width="318"/>
  <unicode hex="2010"/>
  <outline>
    <contour>
      <point x="21" y="192" type="line"/>
      <point x="297" y="192" type="line"/>
      <point x="297" y="344" type="line"/>
      <point x="21" y="344" type="line"/>
    </contour>
  </outline>
</glyph>
<glyph name="sheqel" format="2">
  <advance width="911"/>
  <unicode hex="20AA"/>
  <note>
sheqel
</note>
  <outline>
    <contour>
      <point x="313" y="0" type="line"/>
      <point x="552" y="0" type="line" smooth="yes"/>
      <point x="759" y="0"/>
      <point x="841" y="83"/>
      <point x="841" y="315" type="curve" smooth="yes"/>
      <point x="841" y="609" type="line"/>
      <point x="649" y="609" type="line"/>
      <point x="649" y="315" type="line" smooth="yes"/>
      <point x="649" y="185"/>
      <point x="617" y="159"/>
      <point x="513" y="159" type="curve" smooth="yes"/>
      <point x="435" y="159" type="line"/>
      <point x="435" y="390" type="line"/>
      <point x="313" y="390" type="line"/>
    </contour>
    <contour>
      <point x="75" y="0" type="line"/>
      <point x="267" y="0" type="line"/>
      <point x="267" y="450" type="line"/>
      <point x="435" y="450" type="line" smooth="yes"/>
      <point x="465" y="450"/>
      <point x="481" y="428"/>
      <point x="481" y="384" type="curve" smooth="yes"/>
      <point x="481" y="219" type="line"/>
      <point x="603" y="219" type="line"/>
      <point x="603" y="412" type="line" smooth="yes"/>
      <point x="603" y="545"/>
      <point x="560" y="609"/>
      <point x="395" y="609" type="curve" smooth="yes"/>
      <point x="75" y="609" type="line"/>
    </contour>
  </outline>
</glyph>
<glyph name="judeospanishvarika-hb" format="2">
  <unicode hex="FB1E"/>
  <note>
uniFB1E
</note>
  <anchor x="166" y="553" name="_top"/>
  <outline>
    <contour>
      <point x="283" y="767" type="curve"/>
      <point x="226" y="767" type="line"/>
      <point x="226" y="727"/>
      <point x="204" y="705"/>
      <point x="166" y="705" type="curve" smooth="yes"/>
      <point x="127" y="705"/>
      <point x="105" y="732"/>
      <point x="105" y="767" type="curve"/>
      <point x="50" y="767" type="line"/>
      <point x="50" y="696"/>
      <point x="93" y="647"/>
      <point x="166" y="647" type="curve" smooth="yes"/>
      <point x="240" y="647"/>
      <point x="283" y="696"/>
    </contour>
  </outline>
</glyph>
<glyph name="ayinaltone-hb" format="2">
  <advance width="649"/>
  <unicode hex="FB20"/>
  <note>
alternativeayin
</note>
  <anchor x="299" y="0" name="bottom"/>
  <anchor x="10" y="0" name="bottomleft"/>
  <anchor x="337" y="553" name="top"/>
  <anchor x="37" y="553" name="topleft"/>
  <outline>
    <contour>
      <point x="25" y="0" type="line"/>
      <point x="288" y="0" type="line" smooth="yes"/>
      <point x="573" y="0"/>
      <point x="601" y="251"/>
      <point x="613" y="407" type="curve" smooth="yes"/>
      <point x="629" y="609" type="line"/>
      <point x="437" y="609" type="line"/>
      <point x="422" y="414" type="line" smooth="yes"/>
      <point x="408" y="231"/>
      <point x="369" y="157"/>
      <point x="288" y="157" type="curve" smooth="yes"/>
      <point x="25" y="158" type="line"/>
    </contour>
    <contour>
      <point x="158" y="67" type="line"/>
      <point x="229" y="67" type="line"/>
      <point x="289" y="122"/>
      <point x="317" y="214"/>
      <point x="301" y="291" type="curve"/>
      <point x="245" y="619" type="line"/>
      <point x="57" y="597" type="line"/>
    </contour>
  </outline>
</glyph>
<glyph name="widealef-hb" format="2">
  <advance width="890"/>
  <unicode hex="FB21"/>
  <note>
alefwide
</note>
  <outline>
    <contour>
      <point x="612" y="0" type="curve"/>
      <point x="845" y="0" type="line"/>
      <point x="717" y="152"/>
      <point x="586" y="281"/>
      <point x="460" y="434" type="curve" smooth="yes"/>
      <point x="431" y="469"/>
      <point x="349" y="561"/>
      <point x="300" y="609" type="curve"/>
      <point x="54" y="609" type="line"/>
      <point x="97" y="570"/>
      <point x="223" y="438"/>
      <point x="280" y="381" type="curve" smooth="yes"/>
      <point x="406" y="255"/>
      <point x="492" y="152"/>
    </contour>
    <contour>
      <point x="40" y="0" type="line"/>
      <point x="231" y="0" type="line"/>
      <point x="259" y="175" type="line" smooth="yes"/>
      <point x="268" y="233"/>
      <point x="273" y="294"/>
      <point x="355" y="329" type="curve"/>
      <point x="300" y="452" type="line"/>
      <point x="122" y="397"/>
      <point x="85" y="291"/>
      <point x="69" y="188" type="curve" smooth="yes"/>
    </contour>
    <contour>
      <point x="565" y="203" type="line"/>
      <point x="735" y="258"/>
      <point x="791" y="365"/>
      <point x="807" y="467" type="curve" smooth="yes"/>
      <point x="829" y="609" type="line"/>
      <point x="638" y="609" type="line"/>
      <point x="615" y="480" type="line" smooth="yes"/>
      <point x="605" y="426"/>
      <point x="594" y="361"/>
      <point x="511" y="326" type="curve"/>
    </contour>
  </outline>
</glyph>
<glyph name="widedalet-hb" format="2">
  <advance width="745"/>
  <unicode hex="FB22"/>
  <note>
daletwide
</note>
  <outline>
    <contour>
      <point x="432" y="0" type="line"/>
      <point x="624" y="0" type="line"/>
      <point x="624" y="384" type="line"/>
      <point x="624" y="416"/>
      <point x="624" y="439"/>
      <point x="645" y="451" type="curve"/>
      <point x="492" y="451" type="line"/>
      <point x="443" y="427"/>
      <point x="432" y="366"/>
      <point x="432" y="336" type="curve"/>
    </contour>
    <contour>
      <point x="45" y="451" type="line"/>
      <point x="705" y="451" type="line"/>
      <point x="725" y="609" type="line"/>
      <point x="45" y="609" type="line"/>
    </contour>
  </outline>
</glyph>
<glyph name="widehe-hb" format="2">
  <advance width="854"/>
  <unicode hex="FB23"/>
  <note>
hewide
</note>
  <outline>
    <contour>
      <point x="597" y="0" type="line"/>
      <point x="789" y="0" type="line"/>
      <point x="789" y="382" type="line" smooth="yes"/>
      <point x="789" y="533"/>
      <point x="704" y="609"/>
      <point x="537" y="609" type="curve" smooth="yes"/>
      <point x="70" y="609" type="line"/>
      <point x="50" y="451" type="line"/>
      <point x="528" y="451" type="line" smooth="yes"/>
      <point x="571" y="451"/>
      <point x="597" y="427"/>
      <point x="597" y="379" type="curve" smooth="yes"/>
    </contour>
    <contour>
      <point x="60" y="0" type="line"/>
      <point x="252" y="0" type="line"/>
      <point x="252" y="326" type="line"/>
      <point x="60" y="316" type="line"/>
    </contour>
  </outline>
</glyph>
<glyph name="widekaf-hb" format="2">
  <advance width="727"/>
  <unicode hex="FB24"/>
  <note>
kafwide
</note>
  <outline>
    <contour>
      <point x="25" y="0" type="line"/>
      <point x="403" y="0" type="line" smooth="yes"/>
      <point x="597" y="0"/>
      <point x="702" y="110"/>
      <point x="702" y="297" type="curve" smooth="yes"/>
      <point x="702" y="493"/>
      <point x="597" y="609"/>
      <point x="403" y="609" type="curve" smooth="yes"/>
      <point x="45" y="609" type="line"/>
      <point x="25" y="451" type="line"/>
      <point x="403" y="451" type="line" smooth="yes"/>
      <point x="475" y="451"/>
      <point x="507" y="394"/>
      <point x="507" y="297" type="curve" smooth="yes"/>
      <point x="507" y="210"/>
      <point x="475" y="158"/>
      <point x="403" y="158" type="curve" smooth="yes"/>
      <point x="25" y="158" type="line"/>
    </contour>
  </outline>
</glyph>
<glyph name="widelamed-hb" format="2">
  <advance width="716"/>
  <unicode hex="FB25"/>
  <note>
lamedwide
</note>
  <outline>
    <contour>
      <point x="296" y="0" type="line"/>
      <point x="497" y="0" type="line"/>
      <point x="696" y="499" type="line"/>
      <point x="696" y="609" type="line"/>
      <point x="196" y="609" type="line"/>
      <point x="196" y="760" type="line"/>
      <point x="4" y="740" type="line"/>
      <point x="4" y="451" type="line"/>
      <point x="484" y="451" type="line"/>
    </contour>
  </outline>
</glyph>
<glyph name="finalwidemem-hb" format="2">
  <advance width="854"/>
  <unicode hex="FB26"/>
  <note>
finalmemwide
</note>
  <outline>
    <contour>
      <point x="567" y="609" type="curve" smooth="yes"/>
      <point x="55" y="609" type="line"/>
      <point x="35" y="451" type="line"/>
      <point x="145" y="451" type="line"/>
      <point x="96" y="427"/>
      <point x="85" y="366"/>
      <point x="85" y="336" type="curve" smooth="yes"/>
      <point x="85" y="0" type="line"/>
      <point x="819" y="0" type="line"/>
      <point x="819" y="382" type="line" smooth="yes"/>
      <point x="819" y="533"/>
      <point x="734" y="609"/>
    </contour>
    <contour>
      <point x="627" y="158" type="line"/>
      <point x="277" y="158" type="line"/>
      <point x="277" y="384" type="line" smooth="yes"/>
      <point x="277" y="406"/>
      <point x="277" y="429"/>
      <point x="287" y="451" type="curve"/>
      <point x="558" y="451" type="line" smooth="yes"/>
      <point x="601" y="451"/>
      <point x="627" y="427"/>
      <point x="627" y="379" type="curve" smooth="yes"/>
    </contour>
  </outline>
</glyph>
<glyph name="wideresh-hb" format="2">
  <advance width="747"/>
  <unicode hex="FB27"/>
  <note>
reshwide
</note>
  <outline>
    <contour>
      <point x="497" y="0" type="line"/>
      <point x="689" y="0" type="line"/>
      <point x="689" y="382" type="line" smooth="yes"/>
      <point x="689" y="533"/>
      <point x="604" y="609"/>
      <point x="437" y="609" type="curve" smooth="yes"/>
      <point x="50" y="609" type="line"/>
      <point x="30" y="451" type="line"/>
      <point x="428" y="451" type="line" smooth="yes"/>
      <point x="471" y="451"/>
      <point x="497" y="427"/>
      <point x="497" y="379" type="curve" smooth="yes"/>
    </contour>
  </outline>
</glyph>
<glyph name="widetav-hb" format="2">
  <advance width="946"/>
  <unicode hex="FB28"/>
  <note>
tavwide
</note>
  <outline>
    <contour>
      <point x="699" y="0" type="line"/>
      <point x="891" y="0" type="line"/>
      <point x="891" y="382" type="line" smooth="yes"/>
      <point x="891" y="533"/>
      <point x="806" y="609"/>
      <point x="639" y="609" type="curve" smooth="yes"/>
      <point x="138" y="609" type="line"/>
      <point x="138" y="451" type="line"/>
      <point x="630" y="451" type="line" smooth="yes"/>
      <point x="673" y="451"/>
      <point x="699" y="427"/>
      <point x="699" y="379" type="curve" smooth="yes"/>
    </contour>
    <contour>
      <point x="35" y="0" type="line"/>
      <point x="132" y="0" type="line" smooth="yes"/>
      <point x="262" y="0"/>
      <point x="330" y="76"/>
      <point x="330" y="221" type="curve" smooth="yes"/>
      <point x="330" y="574" type="line"/>
      <point x="138" y="574" type="line"/>
      <point x="138" y="211" type="line" smooth="yes"/>
      <point x="138" y="176"/>
      <point x="122" y="158"/>
      <point x="91" y="158" type="curve" smooth="yes"/>
      <point x="55" y="158" type="line"/>
    </contour>
    <contour>
      <point x="57" y="451" type="line"/>
      <point x="259" y="451" type="line"/>
      <point x="259" y="609" type="line"/>
      <point x="77" y="609" type="line"/>
    </contour>
  </outline>
</glyph>
<glyph name="alternativeplus-hb" format="2">
  <advance width="566"/>
  <unicode hex="FB29"/>
  <note>
alt_plussign
</note>
  <outline>
    <contour>
      <point x="348" y="461" type="line"/>
      <point x="348" y="640" type="line"/>
      <point x="217" y="640" type="line"/>
      <point x="217" y="461" type="line"/>
      <point x="35" y="461" type="line"/>
      <point x="35" y="330" type="line"/>
      <point x="530" y="330" type="line"/>
      <point x="530" y="461" type="line"/>
    </contour>
  </outline>
</glyph>
<glyph name="aleflamed-hb" format="2">
  <advance width="767"/>
  <unicode hex="FB4F"/>
  <note>
aleflamed
</note>
  <anchor x="383.5" y="0" name="caret_1"/>
  <outline>
    <contour>
      <point x="492" y="0" type="curve"/>
      <point x="715" y="0" type="line"/>
      <point x="658" y="91"/>
      <point x="598" y="174"/>
      <point x="539" y="259" type="curve"/>
      <point x="650" y="304"/>
      <point x="690" y="397"/>
      <point x="700" y="487" type="curve" smooth="yes"/>
      <point x="713" y="609" type="line"/>
      <point x="522" y="609" type="line"/>
      <point x="508" y="500" type="line" smooth="yes"/>
      <point x="502" y="454"/>
      <point x="498" y="401"/>
      <point x="459" y="376" type="curve"/>
      <point x="447" y="395"/>
      <point x="434" y="414"/>
      <point x="422" y="434" type="curve" smooth="yes"/>
      <point x="400" y="469"/>
      <point x="337" y="561"/>
      <point x="298" y="609" type="curve"/>
      <point x="217" y="609" type="line"/>
      <point x="217" y="760" type="line"/>
      <point x="25" y="740" type="line"/>
      <point x="25" y="451" type="line"/>
      <point x="185" y="451" type="line"/>
      <point x="203" y="428"/>
      <point x="222" y="404"/>
      <point x="240" y="381" type="curve" smooth="yes"/>
      <point x="341" y="256"/>
      <point x="404" y="152"/>
    </contour>
  </outline>
</glyph>
<glyph name="hatafqamats_zerowidthjoiner_siluqleft-hb" format="2">
  <anchor x="283" y="0" name="_bottom"/>
  <outline>
    <contour>
      <point x="135" y="-240" type="line"/>
      <point x="196" y="-240" type="line"/>
      <point x="196" y="-136" type="line"/>
      <point x="277" y="-136" type="line"/>
      <point x="277" y="-74" type="line"/>
      <point x="55" y="-74" type="line"/>
      <point x="55" y="-136" type="line"/>
      <point x="135" y="-136" type="line"/>
    </contour>
    <contour>
      <point x="317" y="-247" type="line"/>
      <point x="378" y="-247" type="line"/>
      <point x="378" y="-74" type="line"/>
      <point x="317" y="-74" type="line"/>
    </contour>
    <contour>
      <point x="464" y="-142" type="curve" smooth="yes"/>
      <point x="484" y="-142"/>
      <point x="501" y="-125"/>
      <point x="501" y="-105" type="curve" smooth="yes"/>
      <point x="501" y="-85"/>
      <point x="484" y="-68"/>
      <point x="464" y="-68" type="curve" smooth="yes"/>
      <point x="444" y="-68"/>
      <point x="427" y="-85"/>
      <point x="427" y="-105" type="curve" smooth="yes"/>
      <point x="427" y="-125"/>
      <point x="444" y="-142"/>
    </contour>
    <contour>
      <point x="464" y="-247" type="curve" smooth="yes"/>
      <point x="484" y="-247"/>
      <point x="501" y="-230"/>
      <point x="501" y="-210" type="curve" smooth="yes"/>
      <point x="501" y="-190"/>
      <point x="484" y="-173"/>
      <point x="464" y="-173" type="curve" smooth="yes"/>
      <point x="444" y="-173"/>
      <point x="427" y="-190"/>
      <point x="427" y="-210" type="curve" smooth="yes"/>
      <point x="427" y="-230"/>
      <point x="444" y="-247"/>
    </contour>
  </outline>
</glyph>
<glyph name="hatafsegol_zerowidthjoiner_siluqleft-hb" format="2">
  <anchor x="289" y="0" name="_bottom"/>
  <outline>
    <contour>
      <point x="329" y="-247" type="line"/>
      <point x="390" y="-247" type="line"/>
      <point x="390" y="-74" type="line"/>
      <point x="329" y="-74" type="line"/>
    </contour>
    <contour>
      <point x="476" y="-142" type="curve" smooth="yes"/>
      <point x="496" y="-142"/>
      <point x="513" y="-125"/>
      <point x="513" y="-105" type="curve" smooth="yes"/>
      <point x="513" y="-85"/>
      <point x="496" y="-68"/>
      <point x="476" y="-68" type="curve" smooth="yes"/>
      <point x="456" y="-68"/>
      <point x="439" y="-85"/>
      <point x="439" y="-105" type="curve" smooth="yes"/>
      <point x="439" y="-125"/>
      <point x="456" y="-142"/>
    </contour>
    <contour>
      <point x="476" y="-247" type="curve" smooth="yes"/>
      <point x="496" y="-247"/>
      <point x="513" y="-230"/>
      <point x="513" y="-210" type="curve" smooth="yes"/>
      <point x="513" y="-190"/>
      <point x="496" y="-173"/>
      <point x="476" y="-173" type="curve" smooth="yes"/>
      <point x="456" y="-173"/>
      <point x="439" y="-190"/>
      <point x="439" y="-210" type="curve" smooth="yes"/>
      <point x="439" y="-230"/>
      <point x="456" y="-247"/>
    </contour>
    <contour>
      <point x="114" y="-142" type="curve" smooth="yes"/>
      <point x="134" y="-142"/>
      <point x="151" y="-125"/>
      <point x="151" y="-105" type="curve" smooth="yes"/>
      <point x="151" y="-85"/>
      <point x="134" y="-68"/>
      <point x="114" y="-68" type="curve" smooth="yes"/>
      <point x="94" y="-68"/>
      <point x="77" y="-85"/>
      <point x="77" y="-105" type="curve" smooth="yes"/>
      <point x="77" y="-125"/>
      <point x="94" y="-142"/>
    </contour>
    <contour>
      <point x="243" y="-142" type="curve" smooth="yes"/>
      <point x="263" y="-142"/>
      <point x="280" y="-125"/>
      <point x="280" y="-105" type="curve" smooth="yes"/>
      <point x="280" y="-85"/>
      <point x="263" y="-68"/>
      <point x="243" y="-68" type="curve" smooth="yes"/>
      <point x="223" y="-68"/>
      <point x="206" y="-85"/>
      <point x="206" y="-105" type="curve" smooth="yes"/>
      <point x="206" y="-125"/>
      <point x="223" y="-142"/>
    </contour>
    <contour>
      <point x="178" y="-247" type="curve" smooth="yes"/>
      <point x="198" y="-247"/>
      <point x="215" y="-230"/>
      <point x="215" y="-210" type="curve" smooth="yes"/>
      <point x="215" y="-190"/>
      <point x="198" y="-173"/>
      <point x="178" y="-173" type="curve" smooth="yes"/>
      <point x="158" y="-173"/>
      <point x="141" y="-190"/>
      <point x="141" y="-210" type="curve" smooth="yes"/>
      <point x="141" y="-230"/>
      <point x="158" y="-247"/>
    </contour>
  </outline>
</glyph>
